<svg width="104" height="104" viewBox="0 0 104 104" fill="none" xmlns="http://www.w3.org/2000/svg">
<g filter="url(#filter0_d_98842_4553)">
<rect x="22" y="13" width="60" height="60" rx="22.6415" fill="white"/>
<path d="M48.5218 45.812L51.6664 49.5856L56.0689 43.9252L61.7293 51.4724H44.1192L48.5218 45.812ZM64.245 52.7303V35.1202C64.245 33.724 63.1129 32.6045 61.7293 32.6045H44.1192C43.452 32.6045 42.8121 32.8695 42.3404 33.3413C41.8686 33.8131 41.6035 34.453 41.6035 35.1202V52.7303C41.6035 53.3975 41.8686 54.0374 42.3404 54.5092C42.8121 54.981 43.452 55.246 44.1192 55.246H61.7293C62.3965 55.246 63.0364 54.981 63.5082 54.5092C63.98 54.0374 64.245 53.3975 64.245 52.7303Z" fill="#07BD65"/>
</g>
<defs>
<filter id="filter0_d_98842_4553" x="0" y="0" width="104" height="104" filterUnits="userSpaceOnUse" color-interpolation-filters="sRGB">
<feFlood flood-opacity="0" result="BackgroundImageFix"/>
<feColorMatrix in="SourceAlpha" type="matrix" values="0 0 0 0 0 0 0 0 0 0 0 0 0 0 0 0 0 0 127 0" result="hardAlpha"/>
<feOffset dy="9"/>
<feGaussianBlur stdDeviation="11"/>
<feComposite in2="hardAlpha" operator="out"/>
<feColorMatrix type="matrix" values="0 0 0 0 0 0 0 0 0 0 0 0 0 0 0 0 0 0 0.06 0"/>
<feBlend mode="normal" in2="BackgroundImageFix" result="effect1_dropShadow_98842_4553"/>
<feBlend mode="normal" in="SourceGraphic" in2="effect1_dropShadow_98842_4553" result="shape"/>
</filter>
</defs>
</svg>
