<svg xmlns="http://www.w3.org/2000/svg" width="24" height="24" viewBox="0 0 24 24" fill="none">
  <path d="M9.43372 13.0984L11.2671 15.2984L13.8337 11.9984L17.1337 16.3984H6.86706L9.43372 13.0984ZM18.6004 17.1318V6.8651C18.6004 6.0511 17.9404 5.39844 17.1337 5.39844H6.86706C6.47807 5.39844 6.10502 5.55296 5.82997 5.82801C5.55491 6.10307 5.40039 6.47612 5.40039 6.8651V17.1318C5.40039 17.5208 5.55491 17.8938 5.82997 18.1689C6.10502 18.4439 6.47807 18.5984 6.86706 18.5984H17.1337C17.5227 18.5984 17.8958 18.4439 18.1708 18.1689C18.4459 17.8938 18.6004 17.5208 18.6004 17.1318Z" fill="white"/>
</svg>