<svg width="75" height="75" viewBox="0 0 75 75" fill="none" xmlns="http://www.w3.org/2000/svg">
<path d="M37.2341 53.8414C28.195 53.8414 20.8367 46.4831 20.8367 37.444C20.8367 28.4049 28.195 21.0466 37.2341 21.0466C46.2731 21.0466 53.6315 28.4049 53.6315 37.444C53.6315 46.4831 46.2731 53.8414 37.2341 53.8414ZM37.2341 16.9473C34.5424 16.9473 31.8771 17.4774 29.3903 18.5075C26.9035 19.5375 24.644 21.0473 22.7407 22.9506C18.8968 26.7945 16.7373 32.0079 16.7373 37.444C16.7373 42.8801 18.8968 48.0935 22.7407 51.9374C24.644 53.8407 26.9035 55.3505 29.3903 56.3805C31.8771 57.4106 34.5424 57.9408 37.2341 57.9408C42.6701 57.9408 47.8836 55.7813 51.7274 51.9374C55.5713 48.0935 57.7308 42.8801 57.7308 37.444C57.7308 34.7523 57.2006 32.087 56.1706 29.6002C55.1405 27.1135 53.6307 24.8539 51.7274 22.9506C49.8241 21.0473 47.5646 19.5375 45.0778 18.5075C42.591 17.4774 39.9257 16.9473 37.2341 16.9473ZM39.2837 27.1956H35.1844V35.3943H26.9857V39.4937H35.1844V47.6924H39.2837V39.4937H47.4824V35.3943H39.2837V27.1956Z" fill="#16FF8F"/>
</svg>
