<svg width="47" height="47" viewBox="0 0 47 47" fill="none" xmlns="http://www.w3.org/2000/svg">
<path d="M25.8886 34.0674C25.8886 34.7394 25.619 35.3839 25.139 35.859C24.659 36.3342 24.0081 36.6011 23.3293 36.6011C22.6505 36.6011 21.9996 36.3342 21.5196 35.859C21.0397 35.3839 20.77 34.7394 20.77 34.0674H25.8886ZM23.3293 11.2642C23.6687 11.2642 23.9942 11.3976 24.2341 11.6352C24.4741 11.8728 24.6089 12.195 24.6089 12.531V13.8992C28.2431 14.5073 31.0072 17.6364 31.0072 21.3989V29L34.8461 32.8006H11.8125L15.6514 29V21.3989C15.6514 17.6364 18.4155 14.5073 22.0497 13.8992V12.531C22.0497 12.195 22.1845 11.8728 22.4245 11.6352C22.6644 11.3976 22.9899 11.2642 23.3293 11.2642Z" fill="white"/>
</svg>
