<svg width="156" height="35" viewBox="0 0 156 35" fill="none" xmlns="http://www.w3.org/2000/svg">
<g clip-path="url(#clip0_98137_16373)">
<path d="M23.4046 0.538086L23.3818 0.639556L23.3894 0.643343L23.4068 0.538844L23.4046 0.538086ZM28.5341 15.389V15.3989C28.5341 15.5057 28.5394 15.6117 28.5492 15.7162C28.5462 15.6064 28.5409 15.4973 28.5341 15.389Z" stroke="black" stroke-width="0.0757238" stroke-miterlimit="10"/>
<path d="M6.97129 18.4843C6.97129 18.7938 6.98618 19.0995 7.01597 19.4014L1.4957 24.4552C1.1062 23.4868 0.813247 22.4824 0.621094 21.4565L7.25829 15.3789L7.43245 15.569C7.12581 16.5103 6.97017 17.4943 6.97129 18.4843Z" fill="#121228"/>
<path d="M21.8141 6.08478V6.08447C21.8144 5.58242 21.6752 5.09015 21.4119 4.66266C21.1488 4.23538 20.7721 3.88962 20.3239 3.66398C20.3237 3.66387 20.3234 3.66376 20.3232 3.66365L20.3172 3.66065L19.9337 3.46912C18.7639 3.19187 17.5651 3.05208 16.3617 3.05301L16.3613 3.05301C7.83975 3.05301 0.931912 9.96084 0.931912 18.4824V18.4827C0.93148 19.4442 1.0204 20.4037 1.19752 21.3488L1.19757 21.3491C1.38243 22.3381 1.66455 23.3064 2.03983 24.2398C2.27862 24.8337 2.55433 25.4118 2.86526 25.9707L7.01185 21.9702C6.7104 21.1624 6.51557 20.318 6.43277 19.4585C6.40111 19.1374 6.38533 18.8127 6.38533 18.4847M21.8141 6.08478L16.3608 8.5087C14.2563 8.50892 12.2056 9.17447 10.5021 10.4102C8.79837 11.646 7.52902 13.3889 6.87547 15.3895L6.87531 15.39C6.54981 16.3893 6.38445 17.4337 6.38533 18.4847M21.8141 6.08478C21.8139 6.76922 21.5546 7.42823 21.0883 7.92921C20.6219 8.4302 19.9832 8.736 19.3005 8.78508L19.2973 8.78533M21.8141 6.08478L19.2973 8.78533M6.38533 18.4847H6.97154L6.38533 18.4852C6.38533 18.485 6.38533 18.4848 6.38533 18.4847ZM19.2973 8.78533C19.2342 8.79021 19.1706 8.79267 19.1063 8.79267L19.1057 8.79267M19.2973 8.78533L19.1057 8.79267M19.1057 8.79267C18.9846 8.79278 18.8635 8.78469 18.7435 8.76843L18.4573 8.72969M19.1057 8.79267L18.4573 8.72969M18.4573 8.72969C17.7687 8.58234 17.0661 8.50819 16.3613 8.5087L18.4573 8.72969ZM3.16899 26.4922L2.73706 26.9089C2.63118 26.7383 2.52858 26.5657 2.4293 26.3913L3.16899 26.4922Z" fill="#00FF85" stroke="#121228" stroke-width="1.17241"/>
<path d="M12.2555 26.9314L7.31076 31.7021C7.08712 31.5506 6.86778 31.3918 6.65273 31.2257C5.51256 30.3556 4.49388 29.337 3.62377 28.1968C3.47232 27.9994 3.32592 27.7975 3.18457 27.591L8.06497 22.8848C8.18411 23.1094 8.31209 23.3285 8.44889 23.542C9.22967 24.7599 10.2797 25.7822 11.518 26.5301C11.7573 26.6745 12.0031 26.8083 12.2555 26.9314Z" fill="#00FF85"/>
<path d="M16.3607 33.9137L16.3617 33.9137C24.883 33.9137 31.7907 27.0063 31.7911 18.485C31.7908 18.2457 31.7853 18.0075 31.7747 17.7704H31.7728L31.6709 17.3111C31.5662 16.839 31.3368 16.4036 31.0064 16.0505L31.0055 16.0495C30.7526 15.7779 30.4463 15.5613 30.1059 15.4134C29.7655 15.2655 29.3983 15.1893 29.0271 15.1897L29.0269 15.1897C28.4837 15.19 27.9531 15.3536 27.5041 15.6592C27.0552 15.9648 26.7084 16.3982 26.5088 16.9033C26.3877 17.2118 26.3246 17.5399 26.3226 17.8712C26.3231 17.8792 26.3236 17.8875 26.3242 17.8959C26.3302 17.9874 26.3377 18.102 26.3377 18.2163V18.2168V18.2173V18.2179V18.2184V18.2189V18.2194V18.2199V18.2205V18.221V18.2215V18.222V18.2225V18.2231V18.2236V18.2241V18.2246V18.2251V18.2257V18.2262V18.2267V18.2272V18.2277V18.2283V18.2288V18.2293V18.2298V18.2303V18.2309V18.2314V18.2319V18.2324V18.2329V18.2335V18.234V18.2345V18.235V18.2355V18.2361V18.2366V18.2371V18.2376V18.2381V18.2387V18.2392V18.2397V18.2402V18.2407V18.2413V18.2418V18.2423V18.2428V18.2433V18.2439V18.2444V18.2449V18.2454V18.2459V18.2465V18.247V18.2475V18.248V18.2486V18.2491V18.2496V18.2501V18.2506V18.2512V18.2517V18.2522V18.2527V18.2532V18.2538V18.2543V18.2548V18.2553V18.2558V18.2564V18.2569V18.2574V18.2579V18.2585V18.259V18.2595V18.26V18.2605V18.2611V18.2616V18.2621V18.2626V18.2632V18.2637V18.2642V18.2647V18.2652V18.2658V18.2663V18.2668V18.2673V18.2678V18.2684V18.2689V18.2694V18.2699V18.2705V18.271V18.2715V18.272V18.2725V18.2731V18.2736V18.2741V18.2746V18.2752V18.2757V18.2762V18.2767V18.2772V18.2778V18.2783V18.2788V18.2793V18.2799V18.2804V18.2809V18.2814V18.282V18.2825V18.283V18.2835V18.284V18.2846V18.2851V18.2856V18.2861V18.2867V18.2872V18.2877V18.2882V18.2887V18.2893V18.2898V18.2903V18.2908V18.2914V18.2919V18.2924V18.2929V18.2935V18.294V18.2945V18.295V18.2955V18.2961V18.2966V18.2971V18.2976V18.2982V18.2987V18.2992V18.2997V18.3003V18.3008V18.3013V18.3018V18.3024V18.3029V18.3034V18.3039V18.3044V18.305V18.3055V18.306V18.3065V18.3071V18.3076V18.3081V18.3086V18.3092V18.3097V18.3102V18.3107V18.3113V18.3118V18.3123V18.3128V18.3133V18.3139V18.3144V18.3149V18.3154V18.316V18.3165V18.317V18.3175V18.3181V18.3186V18.3191V18.3196V18.3202V18.3207V18.3212V18.3217V18.3223V18.3228V18.3233V18.3238V18.3244V18.3249V18.3254V18.3259V18.3264V18.327V18.3275V18.328V18.3285V18.3291V18.3296V18.3301V18.3306V18.3312V18.3317V18.3322V18.3327V18.3333V18.3338V18.3343V18.3348V18.3354V18.3359V18.3364V18.3369V18.3375V18.338V18.3385V18.339V18.3396V18.3401V18.3406V18.3411V18.3417V18.3422V18.3427V18.3432V18.3438V18.3443V18.3448V18.3453V18.3459V18.3464V18.3469V18.3474V18.3479V18.3485V18.349V18.3495V18.35V18.3506V18.3511V18.3516V18.3521V18.3527V18.3532V18.3537V18.3542V18.3548V18.3553V18.3558V18.3563V18.3569V18.3574V18.3579V18.3584V18.359V18.3595V18.36V18.3605V18.3611V18.3616V18.3621V18.3626V18.3632V18.3637V18.3642V18.3647V18.3653V18.3658V18.3663V18.3668V18.3674V18.3679V18.3684V18.3689V18.3695V18.37V18.3705V18.371V18.3716V18.3721V18.3726V18.3731V18.3737V18.3742V18.3747V18.3752V18.3758V18.3763V18.3768V18.3773V18.3779V18.3784V18.3789V18.3794V18.38V18.3805V18.381V18.3815V18.3821V18.3826V18.3831V18.3836V18.3842V18.3847V18.3852V18.3857V18.3863V18.3868V18.3873V18.3878V18.3884V18.3889V18.3894V18.3899V18.3905V18.391V18.3915V18.392V18.3926V18.3931V18.3936V18.3941V18.3947V18.3952V18.3957V18.3962V18.3968V18.3973V18.3978V18.3983V18.3989V18.3994V18.3999V18.4004V18.401V18.4015V18.402V18.4025V18.4031V18.4036V18.4041V18.4046V18.4052V18.4057V18.4062V18.4067V18.4073V18.4078V18.4083V18.4088V18.4094V18.4099V18.4104V18.4109V18.4115V18.412V18.4125V18.413V18.4136V18.4141V18.4146V18.4151V18.4157V18.4162V18.4167V18.4172V18.4178V18.4183V18.4188V18.4193V18.4199V18.4204V18.4209V18.4214V18.422V18.4225V18.423V18.4235V18.4241V18.4246V18.4251V18.4256V18.4262V18.4267V18.4272V18.4277V18.4283V18.4288V18.4293V18.4298V18.4304V18.4309V18.4314V18.4319V18.4325V18.433V18.4335V18.434V18.4346V18.4351V18.4356V18.4361V18.4367V18.4372V18.4377V18.4382V18.4388V18.4393V18.4398V18.4403V18.4409V18.4414V18.4419V18.4424V18.443V18.4435V18.444V18.4445V18.4451V18.4456V18.4461V18.4466V18.4472V18.4477V18.4482V18.4487V18.4493V18.4498V18.4503V18.4508V18.4513V18.4519V18.4524V18.4529V18.4534V18.454V18.4545V18.455V18.4555V18.4561V18.4566V18.4571V18.4576V18.4582V18.4587V18.4592V18.4597V18.4603V18.4608V18.4613V18.4618V18.4624V18.4629V18.4634V18.4639V18.4645V18.465V18.4655V18.466V18.4666V18.4671V18.4676V18.4681V18.4686V18.4692V18.4697V18.4702V18.4707V18.4713V18.4718V18.4723V18.4728V18.4734V18.4739V18.4744V18.4749V18.4755V18.476V18.4765V18.477V18.4776V18.4781V18.4786V18.4791V18.4797V18.4802V18.4807V18.4812V18.4817V18.4823V18.4828V18.4833V18.4838V18.4844C26.3377 21.1302 25.2866 23.6676 23.4158 25.5384C21.545 27.4091 19.0079 28.4602 16.3623 28.4603L16.3607 33.9137ZM16.3607 33.9137C13.7511 33.918 11.1878 33.2571 8.91097 31.9989M16.3607 33.9137L8.91097 31.9989M8.91097 31.9989L12.4757 28.5612L12.4758 28.5611L13.1343 27.9264C14.1725 28.2807 15.263 28.4613 16.3617 28.4603L8.91097 31.9989Z" fill="#00FF85" stroke="#121228" stroke-width="1.17241"/>
<path d="M28.5342 15.3887V15.3985C28.5342 15.5053 28.5395 15.6113 28.5493 15.7158C28.5463 15.606 28.541 15.497 28.5342 15.3887Z" stroke="black" stroke-width="0.0757238" stroke-miterlimit="10"/>
<path d="M28.5493 15.7158C28.5395 15.6113 28.5342 15.5053 28.5342 15.3985V15.3887C28.541 15.497 28.5463 15.606 28.5493 15.7158Z" stroke="black" stroke-width="0.0757238" stroke-miterlimit="10"/>
<path d="M19.6116 18.6221C19.5448 18.7084 19.4733 18.7908 19.3973 18.869L19.4268 18.9038L16.9582 21.2846L12.5988 25.4888L11.5182 26.53L6.65295 31.2248L5.1786 32.6462L5.13317 32.5932C4.8776 32.9098 4.55472 33.1656 4.18797 33.3419C3.82122 33.5182 3.41982 33.6106 3.0129 33.6124C2.61865 33.6128 2.22922 33.5259 1.87251 33.358C1.56146 33.0737 1.31352 32.7273 1.14474 32.3412C0.975949 31.9551 0.890061 31.5379 0.892634 31.1165C0.892697 31.0154 0.898012 30.9143 0.908543 30.8137C0.94592 30.4065 1.06689 30.0114 1.2639 29.6531C1.4609 29.2948 1.7297 28.981 2.05349 28.7312L2.03001 28.7047L3.18101 27.5946L8.06141 22.8884L9.6236 21.3823L13.9065 17.2523L16.2782 14.9647L16.2933 14.9821C16.7917 14.5224 17.4441 14.2658 18.1221 14.2627C18.5163 14.2623 18.9058 14.3492 19.2625 14.5171C19.5739 14.8017 19.8221 15.1486 19.9909 15.5353C20.1597 15.9219 20.2453 16.3397 20.2423 16.7616C20.2446 17.4346 20.0227 18.0892 19.6116 18.6221Z" fill="#121228"/>
<path d="M19.7115 19.4117C19.7115 19.5289 19.7049 19.6459 19.6918 19.7623L17.6397 21.741L13.2803 25.9452L12.2558 26.9296L7.31099 31.7002L5.86012 33.0996L5.81468 33.0466C5.55911 33.3632 5.23623 33.619 4.86948 33.7953C4.50274 33.9716 4.10133 34.064 3.69442 34.0658C3.02011 34.0643 2.37056 33.8116 1.87251 33.357C1.56146 33.0728 1.31352 32.7264 1.14474 32.3403C0.975949 31.9542 0.890061 31.537 0.892634 31.1156C0.892697 31.0144 0.898002 30.9133 0.908533 30.8127L3.62021 28.198L8.41201 23.5788L8.44533 23.5462L12.6949 19.4488L15.0666 17.1612L15.0818 17.1786C15.5798 16.7188 16.2319 16.462 16.9097 16.4585C18.197 16.4585 19.2837 17.3748 19.6108 18.6219C19.6783 18.8797 19.7121 19.1452 19.7115 19.4117Z" fill="#121228"/>
<path d="M19.2881 19.2982L19.6559 18.9166C20.0952 18.4607 20.3395 17.8515 20.3369 17.2183L20.3369 17.2159C20.3369 16.2342 19.7822 15.4094 19.0124 15.0477L19.0121 15.0475C18.7338 14.9166 18.4301 14.8487 18.1225 14.8489C17.5918 14.8508 17.0808 15.0509 16.6899 15.41L16.2462 15.8176L16.2408 15.8114L14.3135 17.6704L14.3134 17.6705L10.0305 21.8004L10.0305 21.8005L8.46833 23.3066L8.46829 23.3066L3.58795 28.0128L3.58792 28.0128L2.84137 28.7328L2.90835 28.8085L2.41148 29.1917C2.15153 29.3921 1.93572 29.6441 1.77757 29.9317C1.61941 30.2194 1.52229 30.5366 1.49229 30.8635L1.4916 30.8709L1.49156 30.8709C1.48313 30.9513 1.47889 31.0322 1.47884 31.1131L1.47884 31.1163C1.47676 31.4557 1.54593 31.7917 1.68186 32.1026C1.81774 32.4135 2.01731 32.6923 2.26768 32.9212L19.2881 19.2982ZM19.2881 19.2982L19.305 19.3181L19.2849 19.3375L19.2847 19.3377L17.2328 21.3162L17.2328 21.3162L12.8741 25.5196L12.8734 25.5204L11.8496 26.504L11.8487 26.5049L6.90403 31.2754L6.90397 31.2755L5.90061 32.2432M19.2881 19.2982L5.90061 32.2432M5.90061 32.2432L5.80113 32.1272L5.35852 32.6755C5.15762 32.9245 4.9038 33.1255 4.61551 33.2641C4.32779 33.4024 4.01292 33.475 3.6937 33.4767C3.16602 33.4751 2.65782 33.2771 2.26797 32.9215L5.90061 32.2432Z" fill="#00FF85" stroke="#121228" stroke-width="1.17241"/>
<path d="M26.6224 12.0667C26.6224 13.5831 25.3931 14.8124 23.8768 14.8124C22.3604 14.8124 21.1311 13.5831 21.1311 12.0667C21.1311 10.5503 22.3604 9.32107 23.8768 9.32107C25.3931 9.32107 26.6224 10.5503 26.6224 12.0667Z" fill="#00FF85" stroke="#121228" stroke-width="1.17241"/>
</g>
<path d="M46.3437 16.4468C45.5377 16.4468 44.8868 16.2298 44.3908 15.7959C43.9104 15.3464 43.6701 14.7885 43.6701 14.122C43.6701 13.4401 43.9104 12.8744 44.3908 12.4249C44.8868 11.9755 45.5377 11.7507 46.3437 11.7507C47.1341 11.7507 47.7695 11.9755 48.25 12.4249C48.7459 12.8744 48.9939 13.4401 48.9939 14.122C48.9939 14.7885 48.7459 15.3464 48.25 15.7959C47.7695 16.2298 47.1341 16.4468 46.3437 16.4468ZM48.5987 17.6557V30.6978H44.0421V17.6557H48.5987ZM52.9931 22.468C52.9931 20.8562 53.3263 19.4225 53.9927 18.1672C54.6747 16.8963 55.6356 15.9121 56.8755 15.2147C58.1154 14.5017 59.5412 14.1453 61.1531 14.1453C63.1989 14.1453 64.9192 14.6955 66.3141 15.7959C67.709 16.8808 68.6079 18.3609 69.0109 20.2362H64.1056C63.8111 19.6163 63.4004 19.1436 62.8734 18.8181C62.362 18.4926 61.7653 18.3299 61.0833 18.3299C60.0294 18.3299 59.1848 18.7096 58.5493 19.469C57.9294 20.213 57.6194 21.2126 57.6194 22.468C57.6194 23.7389 57.9294 24.7541 58.5493 25.5135C59.1848 26.2574 60.0294 26.6294 61.0833 26.6294C61.7653 26.6294 62.362 26.4666 62.8734 26.1412C63.4004 25.8157 63.8111 25.343 64.1056 24.7231H69.0109C68.6079 26.5984 67.709 28.0862 66.3141 29.1866C64.9192 30.2715 63.1989 30.814 61.1531 30.814C59.5412 30.814 58.1154 30.4653 56.8755 29.7678C55.6356 29.0549 54.6747 28.0707 53.9927 26.8154C53.3263 25.5445 52.9931 24.0954 52.9931 22.468ZM76.1901 30.8605C74.8882 30.8605 73.7181 30.5893 72.6797 30.0468C71.6568 29.5044 70.8508 28.7294 70.2619 27.722C69.6729 26.7146 69.3785 25.529 69.3785 24.1651C69.3785 22.8167 69.6729 21.6388 70.2619 20.6314C70.8663 19.624 71.68 18.8491 72.7029 18.3066C73.7413 17.7642 74.9115 17.493 76.2133 17.493C77.5152 17.493 78.6776 17.7642 79.7005 18.3066C80.7389 18.8491 81.5526 19.624 82.1415 20.6314C82.746 21.6388 83.0482 22.8167 83.0482 24.1651C83.0482 25.5135 82.746 26.6991 82.1415 27.722C81.5526 28.7294 80.7389 29.5044 79.7005 30.0468C78.6621 30.5893 77.492 30.8605 76.1901 30.8605ZM76.1901 26.9084C76.8255 26.9084 77.3525 26.6759 77.7709 26.2109C78.2049 25.7305 78.4219 25.0485 78.4219 24.1651C78.4219 23.2817 78.2049 22.6075 77.7709 22.1425C77.3525 21.6776 76.8333 21.4451 76.2133 21.4451C75.5934 21.4451 75.0742 21.6776 74.6557 22.1425C74.2373 22.6075 74.028 23.2817 74.028 24.1651C74.028 25.064 74.2295 25.746 74.6325 26.2109C75.0354 26.6759 75.5547 26.9084 76.1901 26.9084ZM92.3879 17.5395C93.8912 17.5395 95.0846 18.0432 95.968 19.0506C96.8514 20.0425 97.2932 21.3909 97.2932 23.0957V30.6978H92.7366V23.7001C92.7366 22.9562 92.5428 22.375 92.1554 21.9566C91.7679 21.5226 91.2487 21.3056 90.5978 21.3056C89.9158 21.3056 89.3811 21.5226 88.9937 21.9566C88.6062 22.375 88.4125 22.9562 88.4125 23.7001V30.6978H83.8559V17.6557H88.4125V19.5155C88.8154 18.9266 89.3579 18.4539 90.0398 18.0974C90.7218 17.7254 91.5044 17.5395 92.3879 17.5395ZM107.279 17.5395C108.783 17.5395 109.976 18.0432 110.859 19.0506C111.743 20.0425 112.184 21.3909 112.184 23.0957V30.6978H107.628V23.7001C107.628 22.9562 107.434 22.375 107.047 21.9566C106.659 21.5226 106.14 21.3056 105.489 21.3056C104.807 21.3056 104.272 21.5226 103.885 21.9566C103.498 22.375 103.304 22.9562 103.304 23.7001V30.6978H98.7472V17.6557H103.304V19.5155C103.707 18.9266 104.249 18.4539 104.931 18.0974C105.613 17.7254 106.396 17.5395 107.279 17.5395ZM126.099 24.0256C126.099 24.3821 126.076 24.7386 126.03 25.095H117.405C117.451 25.808 117.645 26.3427 117.986 26.6991C118.342 27.0401 118.792 27.2106 119.334 27.2106C120.094 27.2106 120.636 26.8696 120.962 26.1877H125.82C125.619 27.0866 125.224 27.8925 124.635 28.6054C124.061 29.3029 123.333 29.8531 122.45 30.256C121.566 30.659 120.59 30.8605 119.52 30.8605C118.234 30.8605 117.087 30.5893 116.08 30.0468C115.088 29.5044 114.305 28.7294 113.732 27.722C113.174 26.7146 112.895 25.529 112.895 24.1651C112.895 22.8012 113.174 21.6233 113.732 20.6314C114.29 19.624 115.064 18.8491 116.056 18.3066C117.064 17.7642 118.218 17.493 119.52 17.493C120.807 17.493 121.946 17.7564 122.938 18.2834C123.93 18.8103 124.705 19.5698 125.263 20.5617C125.82 21.5381 126.099 22.6927 126.099 24.0256ZM121.45 22.8865C121.45 22.3285 121.264 21.8946 120.892 21.5846C120.52 21.2591 120.055 21.0964 119.497 21.0964C118.939 21.0964 118.482 21.2514 118.125 21.5613C117.769 21.8558 117.536 22.2975 117.428 22.8865H121.45ZM126.174 24.1651C126.174 22.8167 126.453 21.6388 127.011 20.6314C127.569 19.624 128.344 18.8491 129.336 18.3066C130.343 17.7642 131.49 17.493 132.776 17.493C134.435 17.493 135.83 17.9502 136.961 18.8646C138.092 19.7635 138.821 21.0266 139.146 22.654H134.311C134.032 21.8016 133.489 21.3754 132.683 21.3754C132.11 21.3754 131.653 21.6156 131.312 22.096C130.986 22.561 130.824 23.2507 130.824 24.1651C130.824 25.0795 130.986 25.777 131.312 26.2574C131.653 26.7379 132.11 26.9781 132.683 26.9781C133.505 26.9781 134.047 26.5519 134.311 25.6995H139.146C138.821 27.3113 138.092 28.5744 136.961 29.4889C135.83 30.4033 134.435 30.8605 132.776 30.8605C131.49 30.8605 130.343 30.5893 129.336 30.0468C128.344 29.5044 127.569 28.7294 127.011 27.722C126.453 26.7146 126.174 25.529 126.174 24.1651ZM147.688 26.8154V30.6978H145.712C142.38 30.6978 140.714 29.0472 140.714 25.746V21.4451H139.11V17.6557H140.714V14.494H145.294V17.6557H147.665V21.4451H145.294V25.8157C145.294 26.1722 145.371 26.4279 145.526 26.5829C145.697 26.7379 145.976 26.8154 146.363 26.8154H147.688Z" fill="#121228"/>
<defs>
<clipPath id="clip0_98137_16373">
<rect width="32.0312" height="34" fill="white" transform="translate(0.345703 0.5)"/>
</clipPath>
</defs>
</svg>

