<svg xmlns="http://www.w3.org/2000/svg" width="29" height="27" viewBox="0 0 29 27" fill="none">
  <path d="M12.4429 6C14.019 6 15.5306 6.62612 16.6451 7.74062C17.7596 8.85512 18.3857 10.3667 18.3857 11.9429C18.3857 13.4149 17.8463 14.768 16.9594 15.8103L17.2063 16.0571H17.9286L22.5 20.6286L21.1286 22L16.5571 17.4286V16.7063L16.3103 16.4594C15.268 17.3463 13.9149 17.8857 12.4429 17.8857C10.8667 17.8857 9.35512 17.2596 8.24062 16.1451C7.12612 15.0306 6.5 13.519 6.5 11.9429C6.5 10.3667 7.12612 8.85512 8.24062 7.74062C9.35512 6.62612 10.8667 6 12.4429 6ZM12.4429 7.82857C10.1571 7.82857 8.32857 9.65714 8.32857 11.9429C8.32857 14.2286 10.1571 16.0571 12.4429 16.0571C14.7286 16.0571 16.5571 14.2286 16.5571 11.9429C16.5571 9.65714 14.7286 7.82857 12.4429 7.82857Z" fill="#00CB6A"/>
</svg>