<svg width="35" height="37" viewBox="0 0 35 37" fill="none" xmlns="http://www.w3.org/2000/svg">
<g id="Layer_1" clip-path="url(#clip0_97759_12980)">
<path id="Vector" d="M25.0933 0.041275L25.0686 0.151698L25.0769 0.15582L25.0958 0.0420999L25.0933 0.041275ZM30.6755 16.2026V16.2133C30.6755 16.3295 30.6812 16.4449 30.6919 16.5586C30.6886 16.4391 30.6829 16.3205 30.6755 16.2026Z" stroke="black" stroke-width="0.0824053" stroke-miterlimit="10"/>
<path id="Vector_2" d="M7.21044 19.5713C7.21044 19.9081 7.22664 20.2407 7.25905 20.5692L1.2517 26.069C0.827836 25.0152 0.509035 23.9221 0.299927 22.8057L7.52276 16.1919L7.71228 16.3987C7.37859 17.4231 7.20921 18.4939 7.21044 19.5713Z" fill="white"/>
<path id="Vector_3" d="M23.3626 6.07731V6.07697C23.363 5.53062 23.2115 4.99492 22.925 4.52971C22.6386 4.06471 22.2287 3.68843 21.7409 3.44288C21.7407 3.44277 21.7405 3.44266 21.7403 3.44255L21.7337 3.43929L21.3163 3.23084C20.0433 2.92914 18.7388 2.77702 17.4292 2.77803L17.4287 2.77803C8.15528 2.77803 0.637933 10.2954 0.637933 19.5688V19.5691C0.637464 20.6155 0.734227 21.6597 0.926974 22.6882L0.927028 22.6885C1.1282 23.7647 1.43522 24.8184 1.84361 25.8343L23.3626 6.07731ZM23.3626 6.07731C23.3625 6.82214 23.0803 7.53929 22.5728 8.08448C22.0653 8.62967 21.3702 8.96246 20.6273 9.01587L20.6238 9.01614M23.3626 6.07731L20.6238 9.01614M20.6238 9.01614C20.5552 9.02145 20.4859 9.02412 20.4159 9.02412L20.4153 9.02412M20.6238 9.01614L20.4153 9.02412M20.4153 9.02412C20.2835 9.02425 20.1518 9.01544 20.0211 8.99775L19.7097 8.95559M20.4153 9.02412L19.7097 8.95559M19.7097 8.95559C18.9603 8.79524 18.1957 8.71455 17.4287 8.7151L19.7097 8.95559Z" fill="#00FF85" stroke="white" stroke-width="1.27586"/>
<path id="Vector_4" d="M12.9607 28.7636L7.57962 33.9552C7.33625 33.7904 7.09756 33.6176 6.86352 33.4368C5.62275 32.49 4.51419 31.3814 3.56731 30.1406C3.4025 29.9258 3.24318 29.7061 3.08936 29.4814L8.40038 24.3599C8.53003 24.6044 8.6693 24.8428 8.81818 25.0752C9.66785 26.4005 10.8105 27.513 12.1581 28.3269C12.4185 28.484 12.686 28.6296 12.9607 28.7636Z" fill="#00FF85"/>
<path id="Vector_5" d="M17.4277 36.3621L17.4287 36.3621C26.7022 36.3621 34.2195 28.8448 34.2195 19.5713C34.2192 19.3111 34.2133 19.0521 34.2017 18.7943H34.1996L34.0888 18.2945C33.9749 17.7808 33.7251 17.307 33.3656 16.9227L33.3647 16.9216C33.0894 16.626 32.7561 16.3904 32.3857 16.2294C32.0153 16.0684 31.6156 15.9855 31.2117 15.986L31.2114 15.986C30.6203 15.9863 30.043 16.1643 29.5543 16.4969C29.0658 16.8294 28.6884 17.301 28.4712 17.8506C28.3394 18.1863 28.2707 18.5435 28.2685 18.904C28.2691 18.9128 28.2697 18.9218 28.2703 18.931C28.2768 19.0305 28.2849 19.1552 28.2849 19.2796V19.2802V19.2807V19.2813V19.2819V19.2824V19.283V19.2836V19.2841V19.2847V19.2853V19.2858V19.2864V19.2869V19.2875V19.2881V19.2886V19.2892V19.2898V19.2903V19.2909V19.2915V19.292V19.2926V19.2932V19.2937V19.2943V19.2949V19.2954V19.296V19.2966V19.2971V19.2977V19.2983V19.2988V19.2994V19.3V19.3005V19.3011V19.3017V19.3022V19.3028V19.3034V19.3039V19.3045V19.3051V19.3056V19.3062V19.3068V19.3073V19.3079V19.3085V19.309V19.3096V19.3102V19.3107V19.3113V19.3119V19.3124V19.313V19.3136V19.3141V19.3147V19.3153V19.3158V19.3164V19.317V19.3175V19.3181V19.3187V19.3192V19.3198V19.3204V19.3209V19.3215V19.3221V19.3226V19.3232V19.3238V19.3243V19.3249V19.3255V19.326V19.3266V19.3272V19.3277V19.3283V19.3289V19.3294V19.33V19.3306V19.3311V19.3317V19.3323V19.3329V19.3334V19.334V19.3346V19.3351V19.3357V19.3363V19.3368V19.3374V19.338V19.3385V19.3391V19.3397V19.3402V19.3408V19.3414V19.3419V19.3425V19.3431V19.3436V19.3442V19.3448V19.3454V19.3459V19.3465V19.3471V19.3476V19.3482V19.3488V19.3493V19.3499V19.3505V19.351V19.3516V19.3522V19.3527V19.3533V19.3539V19.3545V19.355V19.3556V19.3562V19.3567V19.3573V19.3579V19.3584V19.359V19.3596V19.3601V19.3607V19.3613V19.3619V19.3624V19.363V19.3636V19.3641V19.3647V19.3653V19.3658V19.3664V19.367V19.3675V19.3681V19.3687V19.3693V19.3698V19.3704V19.371V19.3715V19.3721V19.3727V19.3732V19.3738V19.3744V19.375V19.3755V19.3761V19.3767V19.3772V19.3778V19.3784V19.3789V19.3795V19.3801V19.3806V19.3812V19.3818V19.3824V19.3829V19.3835V19.3841V19.3846V19.3852V19.3858V19.3863V19.3869V19.3875V19.3881V19.3886V19.3892V19.3898V19.3903V19.3909V19.3915V19.3921V19.3926V19.3932V19.3938V19.3943V19.3949V19.3955V19.396V19.3966V19.3972V19.3978V19.3983V19.3989V19.3995V19.4V19.4006V19.4012V19.4017V19.4023V19.4029V19.4035V19.404V19.4046V19.4052V19.4057V19.4063V19.4069V19.4075V19.408V19.4086V19.4092V19.4097V19.4103V19.4109V19.4114V19.412V19.4126V19.4132V19.4137V19.4143V19.4149V19.4154V19.416V19.4166V19.4172V19.4177V19.4183V19.4189V19.4194V19.42V19.4206V19.4212V19.4217V19.4223V19.4229V19.4234V19.424V19.4246V19.4251V19.4257V19.4263V19.4269V19.4274V19.428V19.4286V19.4291V19.4297V19.4303V19.4309V19.4314V19.432V19.4326V19.4331V19.4337V19.4343V19.4349V19.4354V19.436V19.4366V19.4371V19.4377V19.4383V19.4389V19.4394V19.44V19.4406V19.4411V19.4417V19.4423V19.4429V19.4434V19.444V19.4446V19.4451V19.4457V19.4463V19.4468V19.4474V19.448V19.4486V19.4491V19.4497V19.4503V19.4508V19.4514V19.452V19.4526V19.4531V19.4537V19.4543V19.4548V19.4554V19.456V19.4566V19.4571V19.4577V19.4583V19.4588V19.4594V19.46V19.4606V19.4611V19.4617V19.4623V19.4628V19.4634V19.464V19.4646V19.4651V19.4657V19.4663V19.4668V19.4674V19.468V19.4686V19.4691V19.4697V19.4703V19.4708V19.4714V19.472V19.4726V19.4731V19.4737V19.4743V19.4748V19.4754V19.476V19.4766V19.4771V19.4777V19.4783V19.4788V19.4794V19.48V19.4806V19.4811V19.4817V19.4823V19.4828V19.4834V19.484V19.4846V19.4851V19.4857V19.4863V19.4868V19.4874V19.488V19.4886V19.4891V19.4897V19.4903V19.4908V19.4914V19.492V19.4926V19.4931V19.4937V19.4943V19.4948V19.4954V19.496V19.4966V19.4971V19.4977V19.4983V19.4988V19.4994V19.5V19.5006V19.5011V19.5017V19.5023V19.5028V19.5034V19.504V19.5046V19.5051V19.5057V19.5063V19.5068V19.5074V19.508V19.5085V19.5091V19.5097V19.5103V19.5108V19.5114V19.512V19.5125V19.5131V19.5137V19.5143V19.5148V19.5154V19.516V19.5165V19.5171V19.5177V19.5183V19.5188V19.5194V19.52V19.5205V19.5211V19.5217V19.5223V19.5228V19.5234V19.524V19.5245V19.5251V19.5257V19.5263V19.5268V19.5274V19.528V19.5285V19.5291V19.5297V19.5302V19.5308V19.5314V19.532V19.5325V19.5331V19.5337V19.5342V19.5348V19.5354V19.536V19.5365V19.5371V19.5377V19.5382V19.5388V19.5394V19.54V19.5405V19.5411V19.5417V19.5422V19.5428V19.5434V19.5439V19.5445V19.5451V19.5457V19.5462V19.5468V19.5474V19.5479V19.5485V19.5491V19.5496V19.5502V19.5508V19.5514V19.5519V19.5525V19.5531V19.5536V19.5542V19.5548V19.5554V19.5559V19.5565V19.5571V19.5576V19.5582V19.5588V19.5593V19.5599V19.5605V19.5611V19.5616V19.5622V19.5628V19.5633V19.5639V19.5645V19.565V19.5656V19.5662V19.5668V19.5673V19.5679V19.5685V19.569V19.5696V19.5702V19.5707V19.5713C28.2849 22.4506 27.1412 25.2119 25.1052 27.2478C23.0694 29.2836 20.3084 30.4273 17.4294 30.4275L17.4277 36.3621ZM17.4277 36.3621C14.5878 36.3668 11.7983 35.6475 9.32058 34.2783M17.4277 36.3621L17.4287 37C14.4149 37.005 11.4556 36.2245 8.84095 34.7409L9.32058 34.2783M9.32058 34.2783L13.1999 30.5373L13.2 30.5372L13.9166 29.8465C15.0464 30.232 16.2331 30.4286 17.4287 30.4275L9.32058 34.2783Z" fill="#00FF85" stroke="white" stroke-width="1.27586"/>
<path id="Vector_6" d="M30.6754 16.2025V16.2132C30.6754 16.3294 30.6812 16.4447 30.6919 16.5584C30.6886 16.439 30.6828 16.3203 30.6754 16.2025Z" stroke="black" stroke-width="0.0824053" stroke-miterlimit="10"/>
<path id="Vector_7" d="M30.6919 16.5584C30.6812 16.4447 30.6754 16.3294 30.6754 16.2132V16.2025C30.6828 16.3203 30.6886 16.439 30.6919 16.5584Z" stroke="black" stroke-width="0.0824053" stroke-miterlimit="10"/>
<path id="Vector_8" d="M20.9656 19.7211C20.893 19.815 20.8152 19.9047 20.7324 19.9898L20.7646 20.0277L18.0782 22.6185L13.3341 27.1936L12.1582 28.3267L6.86361 33.4358L5.25917 34.9826L5.20973 34.9249C4.93161 35.2695 4.58024 35.5478 4.18113 35.7397C3.78203 35.9315 3.3452 36.0321 2.90238 36.0341C2.47335 36.0345 2.04955 35.9399 1.66136 35.7572C1.32287 35.4479 1.05306 35.0709 0.869378 34.6508C0.685698 34.2306 0.592232 33.7766 0.595032 33.318C0.595101 33.2079 0.600884 33.0979 0.612344 32.9884C0.65302 32.5453 0.784666 32.1153 0.999051 31.7254C1.21344 31.3355 1.50595 30.994 1.85831 30.7222L1.83276 30.6934L3.08532 29.4853L8.39635 24.3638L10.0964 22.7248L14.7572 18.2304L17.3382 15.741L17.3546 15.7599C17.897 15.2597 18.6069 14.9804 19.3447 14.9771C19.7738 14.9767 20.1976 15.0712 20.5858 15.2539C20.9247 15.5637 21.1947 15.9411 21.3784 16.3619C21.5621 16.7827 21.6553 17.2373 21.6521 17.6964C21.6546 18.4288 21.413 19.1412 20.9656 19.7211Z" fill="white"/>
<path id="Vector_9" d="M21.0751 20.5808C21.0751 20.7082 21.0679 20.8356 21.0537 20.9623L18.8205 23.1156L14.0765 27.6907L12.9615 28.762L7.58044 33.9535L6.00155 35.4764L5.95211 35.4187C5.67399 35.7633 5.32262 36.0416 4.92351 36.2334C4.52441 36.4253 4.08758 36.5259 3.64476 36.5279C2.91096 36.5262 2.2041 36.2512 1.66209 35.7565C1.3236 35.4472 1.05379 35.0702 0.87011 34.6501C0.68643 34.2299 0.592964 33.7759 0.595764 33.3173C0.595833 33.2072 0.601606 33.0972 0.613066 32.9877L3.56401 30.1423L8.77862 25.1155L8.81487 25.0801L13.4395 20.6211L16.0204 18.1317L16.0369 18.1506C16.5789 17.6503 17.2885 17.3707 18.0261 17.367C19.427 17.367 20.6096 18.3641 20.9655 19.7213C21.039 20.0019 21.0758 20.2907 21.0751 20.5808Z" fill="white"/>
<path id="Vector_10" d="M0.595764 33.3139C0.592964 33.7724 0.68643 34.2265 0.87011 34.6466C1.05379 35.0668 1.3236 35.4437 1.66209 35.7531C2.2041 36.2478 2.91096 36.5228 3.64476 36.5244C4.08758 36.5224 4.52441 36.4219 4.92351 36.23C5.12927 36.1311 5.32234 36.0092 5.49922 35.8671L5.46777 35.8304L0.595764 33.3139ZM0.595764 33.3139C0.595833 33.2038 0.601606 33.0938 0.613066 32.9843L0.595764 33.3139ZM21.0146 20.0415L20.6144 20.4569L20.6328 20.4785L20.6109 20.4996L20.6106 20.4999L18.3777 22.6529L18.3777 22.6529L13.6345 27.2272L13.6336 27.2281L12.5195 28.2985L12.5186 28.2994L7.13758 33.4909L7.13751 33.491L6.04561 34.5441L5.93735 34.4178L5.4557 35.0146C5.23707 35.2854 4.96086 35.5042 4.64713 35.6551C4.33407 35.8055 3.99149 35.8846 3.64417 35.8865C3.06986 35.8847 2.51674 35.6693 2.09245 35.2822C1.81984 35.0331 1.60255 34.7295 1.45463 34.3911C1.3067 34.0527 1.23143 33.6871 1.23369 33.3178L1.2337 33.3143C1.23375 33.2262 1.23837 33.1382 1.24753 33.0507L1.24758 33.0507L1.24833 33.0426C1.28098 32.6868 1.38667 32.3417 1.55878 32.0286C1.73089 31.7156 1.96574 31.4414 2.24862 31.2233L2.78934 30.8063L2.71645 30.724L3.52887 29.9404L3.52891 29.9404L8.83985 24.819L8.8399 24.8189L10.5399 23.1799L10.5399 23.1799L15.2008 18.6855L15.2008 18.6854L17.2982 16.6624L17.304 16.6692L17.7869 16.2256C18.2123 15.8348 18.7683 15.6171 19.346 15.615C19.6806 15.6148 20.0112 15.6886 20.314 15.8311L20.3144 15.8313C21.1521 16.2249 21.7557 17.1225 21.7557 18.1909L21.7557 18.1935C21.7585 18.8825 21.4927 19.5454 21.0146 20.0415Z" fill="#00FF85" stroke="white" stroke-width="1.27586"/>
<path id="Vector_11" d="M28.5954 12.5874C28.5954 14.2376 27.2577 15.5753 25.6075 15.5753C23.9574 15.5753 22.6196 14.2376 22.6196 12.5874C22.6196 10.9372 23.9574 9.59949 25.6075 9.59949C27.2577 9.59949 28.5954 10.9372 28.5954 12.5874Z" fill="#00FF85" stroke="white" stroke-width="1.27586"/>
</g>
<defs>
<clipPath id="clip0_97759_12980">
<rect width="34.8575" height="37" fill="white"/>
</clipPath>
</defs>
</svg>
