<svg width="27" height="26" viewBox="0 0 27 26" fill="none" xmlns="http://www.w3.org/2000/svg">
<path d="M13.4204 21.8245C10.2533 21.8245 7.45358 20.2029 5.81935 17.7705C5.85735 15.2368 10.8867 13.8433 13.4204 13.8433C15.9541 13.8433 20.9835 15.2368 21.0215 17.7705C19.3873 20.2029 16.5876 21.8245 13.4204 21.8245ZM13.4204 3.83521C14.4284 3.83521 15.3951 4.23563 16.1078 4.94837C16.8206 5.66111 17.221 6.62779 17.221 7.63576C17.221 8.64373 16.8206 9.61041 16.1078 10.3231C15.3951 11.0359 14.4284 11.4363 13.4204 11.4363C12.4125 11.4363 11.4458 11.0359 10.733 10.3231C10.0203 9.61041 9.61989 8.64373 9.61989 7.63576C9.61989 6.62779 10.0203 5.66111 10.733 4.94837C11.4458 4.23563 12.4125 3.83521 13.4204 3.83521ZM13.4204 0.034668C11.7568 0.034668 10.1094 0.362348 8.57242 0.998999C7.03541 1.63565 5.63884 2.5688 4.46247 3.74518C2.08666 6.12098 0.751953 9.34326 0.751953 12.7032C0.751953 16.063 2.08666 19.2853 4.46247 21.6611C5.63884 22.8375 7.03541 23.7707 8.57242 24.4073C10.1094 25.044 11.7568 25.3716 13.4204 25.3716C16.7803 25.3716 20.0026 24.0369 22.3784 21.6611C24.7542 19.2853 26.0889 16.063 26.0889 12.7032C26.0889 5.69748 20.3881 0.034668 13.4204 0.034668Z" fill="white"/>
</svg>
